<?xml version="1.0" encoding="utf-8"?>
<!-- Generator: Adobe Illustrator 24.3.0, SVG Export Plug-In . SVG Version: 6.00 Build 0)  -->
<svg version="1.1" id="Layer_1" xmlns="http://www.w3.org/2000/svg" xmlns:xlink="http://www.w3.org/1999/xlink" x="0px" y="0px"
	 viewBox="0 0 1920 1080" style="enable-background:new 0 0 1920 1080;" xml:space="preserve">
<g>
	<path style="fill:#FFFFFF;" d="M1323.42,684.5c-12.28,42.1-35.09,105.26-48.24,132.45c-25.44,5.26-93.86,21.05-160.52,21.05
		C905.02,838,798,698.53,798,545.03c0-178.94,135.96-302.62,332.45-302.62c75.43,0,136.84,15.79,165.78,20.17
		c3.51,39.47,9.65,92.1,16.67,135.96l-27.19,6.14c-17.54-58.77-38.6-94.73-83.33-113.15c-22.8-10.53-58.77-16.67-92.1-16.67
		c-144.73,0-221.04,107.01-221.04,251.75c0,169.29,87.72,278.06,229.82,278.06c89.47,0,133.33-41.23,178.06-128.95L1323.42,684.5z"
		/>
	<path style="fill:#FFFFFF;" d="M1063.47,471.57c38.18,0,66.58,29.01,66.58,68.41c0,49.48-36.65,73-66.58,73
		c-42.15,0-67.8-33.9-67.8-68.11C995.67,495.09,1034.45,471.57,1063.47,471.57z M1059.8,481.95c-18.63,0-35.43,18.02-35.43,53.45
		c0,38.79,17.1,66.89,42.15,66.89c18.94,0,34.82-13.74,34.82-55.59C1101.34,510.97,1086.68,481.95,1059.8,481.95z"/>
	<path style="fill:#FFFFFF;" d="M1231.45,511.58c-5.5-17.71-13.44-29.93-32.07-29.93c-10.69,0-18.94,7.64-18.94,19.85
		c0,13.13,8.86,19.24,25.96,27.18c26.27,12.52,39.4,21.68,39.4,41.84c0,28.1-25.66,42.45-49.78,42.45
		c-15.88,0-29.93-4.89-36.35-8.55c-1.53-8.86-4.28-25.66-5.5-35.73l8.86-1.53c5.5,19.55,16.19,35.43,37.57,35.43
		c11.61,0,21.38-7.94,21.38-20.77c0-13.74-8.25-20.77-24.43-28.71c-21.38-10.38-38.79-20.16-38.79-42.15
		c0-22.29,18.94-39.4,47.65-39.4c12.83,0,23.21,3.05,29.32,3.97c0.92,7.33,3.05,26.57,4.58,33.9L1231.45,511.58z"/>
	<path style="fill:#FFFFFF;" d="M1440.32,613.31v-8.55c18.02-1.83,20.16-7.05,20.16-28.43v-51c0-21.69-7.33-35.43-26.27-35.43
		c-11.61,0-22.3,6.41-33.9,15.88c0.31,3.67,0.92,7.33,0.92,13.13v59.25c0,19.24,2.75,39.77,19.55,41.6v8.55h-65.36v-8.55
		c18.94-1.83,21.68-22.05,21.68-42.21v-52.53c0-22.6-7.02-35.12-25.66-35.12c-12.22,0-24.13,8.25-33.6,15.88v71.77
		c0,20.16,2.14,76.38,19.55,78.21v8.55h-65.67v-8.55c20.16-1.83,21.99-58.05,21.99-78.21v-63.22c0-19.55,2.78-72.77-14.32-75.82
		v-7.63c14.35-2.14,28.71-6.11,42.45-12.22c0,7.33-4,69.41-4,76.74c6.41-4.89,12.83-10.08,22.6-15.88
		c7.64-4.89,14.35-7.94,24.13-7.94c14.66,0,27.18,9.16,33.29,25.04c8.55-6.72,16.49-11.91,24.13-17.1
		c6.72-4.28,15.27-7.94,24.13-7.94c23.82,0,38.48,17.1,38.48,47.03v58.95c0,20.46,1.83,25.38,19.24,27.21v8.55H1440.32z"/>
	<path style="fill:#FFFFFF;" d="M1518.86,640.31v-8.55c19.24-1.83,21.38-34.36,21.38-55.13v-62.92c0-18.94-0.92-35.16-19.24-38.21
		v-7.33c15.88-2.75,30.24-6.72,43.37-12.22c0,12.83,0,40.66,0,53.48v67.19c0,20.77,2.14,53.29,21.99,55.13v8.55H1518.86z
		 M1550.63,441.03c-8.55,0-16.19-7.64-16.19-16.19c0-9.77,7.64-16.8,16.49-16.8c8.55,0,15.58,7.02,15.58,16.8
		C1566.51,433.39,1559.48,441.03,1550.63,441.03z"/>
	<path style="fill:#FFFFFF;" d="M1715.16,581.82c-13.44,17.71-33.9,31.15-52.23,31.15c-38.79,0-61.7-31.46-61.7-64.14
		c0-24.13,10.38-44.29,30.85-59.86c16.19-12.52,34.51-17.41,46.42-17.41c13.74,0,23.82,4.28,28.4,8.25c4.28,3.36,4.89,5.5,4.89,8.86
		c0,7.33-7.64,13.74-11,13.74c-1.53,0-2.75-0.61-5.8-3.05c-9.47-8.55-19.85-12.83-30.85-12.83c-20.16,0-37.87,17.1-37.87,48.87
		c-0.31,42.45,28.71,56.5,46.42,56.5c12.83,0,23.21-3.36,37.26-16.8L1715.16,581.82z"/>
</g>
<path style="fill:#FFFFFF;" d="M1068.61,333c0,0-65,82-63,82s122.44-6.96,122.44-6.96l-67.34-18.01L1068.61,333z"/>
<g>
	<path style="fill:#FFFFFF;" d="M216.68,527.4h22.68c16.61,0,27.83,5.61,27.83,22.1c0,15.92-11.34,23.25-27.83,23.25H226.3v29.78
		h-9.62V527.4z M238.21,564.96c13.06,0,19.36-4.81,19.36-15.46c0-10.77-6.41-14.32-19.36-14.32H226.3v29.78H238.21z"/>
	<path style="fill:#FFFFFF;" d="M285.06,527.4h23.48c15.23,0,26.34,5.5,26.34,21.19c0,15-11.11,22.22-26.34,22.22H294.8v31.73h-9.74
		V527.4z M307.17,563.02c11.68,0,18.1-4.81,18.1-14.43c0-9.85-6.41-13.4-18.1-13.4H294.8v27.83H307.17z M314.15,563.13l22.91,39.4
		h-10.88l-19.59-34.36L314.15,563.13z"/>
	<path style="fill:#FFFFFF;" d="M347.94,564.62c0-24.28,11.91-38.6,28.86-38.6s28.86,14.32,28.86,38.6
		c0,24.62-11.91,39.28-28.86,39.28S347.94,589.25,347.94,564.62z M395.7,564.62c0-18.9-7.56-30.12-18.9-30.12
		c-11.34,0-18.9,11.22-18.9,30.12c0,19.24,7.56,30.81,18.9,30.81C388.14,595.43,395.7,583.86,395.7,564.62z"/>
	<path style="fill:#FFFFFF;" d="M420.33,591.42l6.07-5.84c4.35,6.64,10.31,9.85,16.15,9.85c10.65,0,15.46-5.38,15.46-17.75v-42.26
		h-31.38v-8.13h41.12v51.2c0,13.97-6.3,25.43-24.97,25.43C434.42,603.91,425.6,600.01,420.33,591.42z"/>
	<path style="fill:#FFFFFF;" d="M492.95,527.4h46.5v8.13h-36.88v23.48h31.15v8.13h-31.15v27.26h38.02v8.13h-47.65V527.4z"/>
	<path style="fill:#FFFFFF;" d="M556.06,564.96c0-24.17,14.09-38.94,33.67-38.94c9.05,0,16.15,4.35,20.62,9.16l-5.5,6.07
		c-3.89-4.12-8.82-6.76-15.12-6.76c-14.32,0-23.71,11.57-23.71,30.24c0,18.9,9.39,30.7,23.71,30.7c6.87,0,12.14-2.98,16.84-8.25
		l5.5,5.84c-5.84,6.87-13.29,10.88-23.25,10.88C570.26,603.91,556.06,589.47,556.06,564.96z"/>
	<path style="fill:#FFFFFF;" d="M646.88,535.53h-24.85v-8.13h59.33v8.13H656.5v67h-9.62V535.53z"/>
	<path style="fill:#FFFFFF;" d="M692.93,610.43h54.98v8.13h-54.98V610.43z"/>
</g>
</svg>
