<?xml version="1.0" encoding="utf-8"?>
<!-- Generator: Adobe Illustrator 24.3.0, SVG Export Plug-In . SVG Version: 6.00 Build 0)  -->
<svg version="1.1" id="Layer_1" xmlns="http://www.w3.org/2000/svg" xmlns:xlink="http://www.w3.org/1999/xlink" x="0px" y="0px"
	 viewBox="0 0 1920 346" style="enable-background:new 0 0 1920 346;" xml:space="preserve">
<g style="display:none;">
	<path style="display:inline;" d="M1323.42,317.5c-12.28,42.1-35.09,105.26-48.24,132.45c-25.44,5.26-93.86,21.05-160.52,21.05
		C905.02,471,798,331.53,798,178.03c0-178.94,135.96-302.62,332.45-302.62c75.43,0,136.84,15.79,165.78,20.17
		c3.51,39.47,9.65,92.1,16.67,135.96l-27.19,6.14c-17.54-58.77-38.6-94.73-83.33-113.15c-22.8-10.53-58.77-16.67-92.1-16.67
		c-144.73,0-221.04,107.01-221.04,251.74c0,169.29,87.72,278.06,229.82,278.06c89.47,0,133.33-41.23,178.06-128.95L1323.42,317.5z"
		/>
	<path style="display:inline;" d="M1063.47,104.57c38.18,0,66.58,29.01,66.58,68.41c0,49.48-36.65,73-66.58,73
		c-42.15,0-67.8-33.9-67.8-68.11C995.67,128.09,1034.45,104.57,1063.47,104.57z M1059.8,114.95c-18.63,0-35.43,18.02-35.43,53.45
		c0,38.79,17.1,66.89,42.15,66.89c18.94,0,34.82-13.74,34.82-55.59C1101.34,143.97,1086.68,114.95,1059.8,114.95z"/>
	<path style="display:inline;" d="M1231.45,144.58c-5.5-17.71-13.44-29.93-32.07-29.93c-10.69,0-18.94,7.64-18.94,19.85
		c0,13.13,8.86,19.24,25.96,27.18c26.27,12.52,39.4,21.68,39.4,41.84c0,28.1-25.66,42.45-49.78,42.45
		c-15.88,0-29.93-4.89-36.35-8.55c-1.53-8.86-4.28-25.66-5.5-35.73l8.86-1.53c5.5,19.55,16.19,35.43,37.57,35.43
		c11.61,0,21.38-7.94,21.38-20.77c0-13.74-8.25-20.77-24.43-28.71c-21.38-10.38-38.79-20.16-38.79-42.15
		c0-22.29,18.94-39.4,47.65-39.4c12.83,0,23.21,3.05,29.32,3.97c0.92,7.33,3.05,26.57,4.58,33.9L1231.45,144.58z"/>
	<path style="display:inline;" d="M1440.32,246.31v-8.55c18.02-1.83,20.16-7.05,20.16-28.43v-51c0-21.69-7.33-35.43-26.27-35.43
		c-11.61,0-22.3,6.41-33.9,15.88c0.31,3.67,0.92,7.33,0.92,13.13v59.25c0,19.24,2.75,39.77,19.55,41.6v8.55h-65.36v-8.55
		c18.94-1.83,21.68-22.05,21.68-42.21v-52.53c0-22.6-7.02-35.12-25.66-35.12c-12.22,0-24.13,8.25-33.6,15.88v71.77
		c0,20.16,2.14,76.38,19.55,78.21v8.55h-65.67v-8.55c20.16-1.83,21.99-58.05,21.99-78.21v-63.22c0-19.55,2.78-72.77-14.32-75.82
		v-7.63c14.35-2.14,28.71-6.11,42.45-12.22c0,7.33-4,69.41-4,76.74c6.41-4.89,12.83-10.08,22.6-15.88
		c7.64-4.89,14.35-7.94,24.13-7.94c14.66,0,27.18,9.16,33.29,25.04c8.55-6.72,16.49-11.91,24.13-17.1
		c6.72-4.28,15.27-7.94,24.13-7.94c23.82,0,38.48,17.1,38.48,47.03v58.95c0,20.46,1.83,25.38,19.24,27.21v8.55H1440.32z"/>
	<path style="display:inline;" d="M1518.86,273.31v-8.55c19.24-1.83,21.38-34.36,21.38-55.13v-62.92c0-18.94-0.92-35.16-19.24-38.21
		v-7.33c15.88-2.75,30.24-6.72,43.37-12.22c0,12.83,0,40.66,0,53.48v67.19c0,20.77,2.14,53.29,21.99,55.13v8.55H1518.86z
		 M1550.63,74.03c-8.55,0-16.19-7.64-16.19-16.19c0-9.77,7.64-16.8,16.49-16.8c8.55,0,15.58,7.02,15.58,16.8
		C1566.51,66.39,1559.48,74.03,1550.63,74.03z"/>
	<path style="display:inline;" d="M1715.16,214.82c-13.44,17.71-33.9,31.15-52.23,31.15c-38.79,0-61.7-31.46-61.7-64.14
		c0-24.13,10.38-44.29,30.85-59.86c16.19-12.52,34.51-17.41,46.42-17.41c13.74,0,23.82,4.28,28.4,8.25c4.28,3.36,4.89,5.5,4.89,8.86
		c0,7.33-7.64,13.74-11,13.74c-1.53,0-2.75-0.61-5.8-3.05c-9.47-8.55-19.85-12.83-30.85-12.83c-20.16,0-37.87,17.1-37.87,48.87
		c-0.31,42.45,28.71,56.5,46.42,56.5c12.83,0,23.21-3.36,37.26-16.8L1715.16,214.82z"/>
</g>
<path style="display:none;" d="M1068.61-34c0,0-65,82-63,82s122.44-6.96,122.44-6.96l-67.34-18.01L1068.61-34z"/>
<g>
	<path style="fill:#FFFFFF;" d="M188.26,122.3h36.69c26.87,0,45.03,9.08,45.03,35.77c0,25.76-18.35,37.62-45.03,37.62h-21.13v48.18
		h-15.57V122.3z M223.1,183.08c21.13,0,31.32-7.78,31.32-25.02c0-17.42-10.38-23.16-31.32-23.16h-19.27v48.18H223.1z"/>
	<path style="fill:#FFFFFF;" d="M298.9,122.3h37.99c24.65,0,42.62,8.9,42.62,34.28c0,24.28-17.98,35.95-42.62,35.95h-22.24v51.33
		H298.9V122.3z M334.66,179.93c18.9,0,29.28-7.78,29.28-23.35c0-15.94-10.38-21.68-29.28-21.68h-20.01v45.03H334.66z M345.97,180.12
		l37.06,63.75h-17.61l-31.69-55.59L345.97,180.12z"/>
	<path style="fill:#FFFFFF;" d="M400.64,182.53c0-39.29,19.27-62.45,46.7-62.45c27.43,0,46.7,23.17,46.7,62.45
		c0,39.84-19.27,63.56-46.7,63.56C419.91,246.09,400.64,222.37,400.64,182.53z M477.91,182.53c0-30.58-12.23-48.74-30.58-48.74
		c-18.35,0-30.58,18.16-30.58,48.74c0,31.13,12.23,49.85,30.58,49.85C465.68,232.38,477.91,213.66,477.91,182.53z"/>
	<path style="fill:#FFFFFF;" d="M517.75,225.89l9.82-9.45c7.04,10.75,16.68,15.94,26.13,15.94c17.23,0,25.02-8.71,25.02-28.72
		v-68.38h-50.78v-13.16h66.53v82.84c0,22.61-10.19,41.14-40.4,41.14C540.55,246.09,526.28,239.79,517.75,225.89z"/>
	<path style="fill:#FFFFFF;" d="M635.24,122.3h75.24v13.16h-59.67v37.99h50.41v13.16h-50.41v44.11h61.53v13.16h-77.09V122.3z"/>
	<path style="fill:#FFFFFF;" d="M737.35,183.08c0-39.1,22.79-63.01,54.48-63.01c14.64,0,26.13,7.04,33.36,14.83l-8.9,9.82
		c-6.3-6.67-14.27-10.93-24.46-10.93c-23.17,0-38.36,18.72-38.36,48.92c0,30.58,15.2,49.67,38.36,49.67
		c11.12,0,19.64-4.82,27.24-13.34l8.9,9.45c-9.45,11.12-21.5,17.61-37.62,17.61C760.33,246.09,737.35,222.74,737.35,183.08z"/>
	<path style="fill:#FFFFFF;" d="M884.31,135.46h-40.21V122.3h95.99v13.16h-40.21v108.41h-15.57V135.46z"/>
	<path style="fill:#FFFFFF;" d="M958.8,256.65h88.95v13.16H958.8V256.65z"/>
	<path style="fill:#FFFFFF;" d="M1070.92,183.08c0-39.1,22.79-63.01,54.48-63.01c14.64,0,26.13,7.04,33.36,14.83l-8.9,9.82
		c-6.3-6.67-14.27-10.93-24.46-10.93c-23.17,0-38.36,18.72-38.36,48.92c0,30.58,15.2,49.67,38.36,49.67
		c11.12,0,19.64-4.82,27.24-13.34l8.9,9.45c-9.45,11.12-21.5,17.61-37.62,17.61C1093.9,246.09,1070.92,222.74,1070.92,183.08z"/>
	<path style="fill:#FFFFFF;" d="M1178.96,182.53c0-39.29,19.27-62.45,46.7-62.45c27.43,0,46.7,23.17,46.7,62.45
		c0,39.84-19.27,63.56-46.7,63.56C1198.23,246.09,1178.96,222.37,1178.96,182.53z M1256.24,182.53c0-30.58-12.23-48.74-30.58-48.74
		c-18.35,0-30.58,18.16-30.58,48.74c0,31.13,12.23,49.85,30.58,49.85C1244,232.38,1256.24,213.66,1256.24,182.53z"/>
	<path style="fill:#FFFFFF;" d="M1293.67,228.11l9.27-10.75c9.27,9.08,21.87,15.01,35.58,15.01c16.68,0,26.31-7.97,26.31-19.09
		c0-12.97-9.45-16.68-21.68-21.87l-17.61-7.78c-12.05-4.82-26.13-13.34-26.13-31.32c0-18.53,16.68-32.25,39.84-32.25
		c15.2,0,28.54,6.12,37.43,15.01l-8.15,10.01c-7.97-7.04-17.24-11.3-29.84-11.3c-14.08,0-23.54,6.67-23.54,17.61
		c0,11.67,11.3,15.94,21.68,20.01l17.05,7.6c15.01,5.93,26.87,14.46,26.87,32.43c0,19.27-16.31,34.65-42.99,34.65
		C1319.98,246.09,1304.6,239.05,1293.67,228.11z"/>
	<path style="fill:#FFFFFF;" d="M1405.78,122.3h18.9l17.05,51.89l5.93,19.64h0.74l5.75-19.64l17.23-51.89h18.9v121.57h-14.83v-60.78
		c0-11.86,1.85-32.62,2.59-42.99h-0.56l-6.86,23.72l-17.42,47.81h-11.12l-17.05-47.81l-7.04-23.72h-0.37
		c1.11,10.38,2.59,31.13,2.59,42.99v60.78h-14.46V122.3z"/>
	<path style="fill:#FFFFFF;" d="M1521.24,230.71h30.21v-95.25h-30.21V122.3h75.98v13.16h-30.21v95.25h30.21v13.16h-75.98V230.71z"/>
	<path style="fill:#FFFFFF;" d="M1626.86,183.08c0-39.1,22.79-63.01,54.48-63.01c14.64,0,26.13,7.04,33.36,14.83l-8.9,9.82
		c-6.3-6.67-14.27-10.93-24.46-10.93c-23.17,0-38.36,18.72-38.36,48.92c0,30.58,15.2,49.67,38.36,49.67
		c11.12,0,19.64-4.82,27.24-13.34l8.9,9.45c-9.45,11.12-21.5,17.61-37.62,17.61C1649.84,246.09,1626.86,222.74,1626.86,183.08z"/>
</g>
<polygon style="fill:#FFFFFF;" points="1755.17,48.85 1717.52,100.63 1788.12,93.57 1750.32,82.83 "/>
</svg>
