<?xml version="1.0" encoding="utf-8"?>
<!-- Generator: Adobe Illustrator 24.3.0, SVG Export Plug-In . SVG Version: 6.00 Build 0)  -->
<svg version="1.1" xmlns="http://www.w3.org/2000/svg" xmlns:xlink="http://www.w3.org/1999/xlink" x="0px" y="0px"
	 viewBox="0 0 595.28 841.89" style="enable-background:new 0 0 595.28 841.89;" xml:space="preserve">
<g id="Layer_1">
	<g>
		<defs>
			<ellipse id="SVGID_1_" cx="298" cy="286.39" rx="209.42" ry="242.62"/>
		</defs>
		<clipPath id="SVGID_2_">
			<use xlink:href="#SVGID_1_"  style="overflow:visible;"/>
		</clipPath>
		<g style="clip-path:url(#SVGID_2_);">
			
				<image style="overflow:visible;" width="500" height="500" xlink:href="../../test.png"  transform="matrix(0.9612 0 0 0.9612 57.6885 38.7324)">
			</image>
		</g>
	</g>
	
		<image style="overflow:visible;" width="677" height="948" xlink:href="../../car2323d_backs.png"  transform="matrix(0.8173 0 0 0.8173 20.9887 33.5545)">
	</image>
	
		<text transform="matrix(1 0 0 1 63.5095 775.4306)" style="fill:#FFFFFF; font-family:'MaiandraGD-Regular'; font-size:50.4159px;">5</text>
	
		<text transform="matrix(1 0 0 1 66.4215 112.9744)" style="fill:#FFFFFF; font-family:'MaiandraGD-Regular'; font-size:50.4159px;">5</text>
	
		<text transform="matrix(1 0 0 1 512.332 775.4306)" style="fill:#FFFFFF; font-family:'MaiandraGD-Regular'; font-size:50.4159px;">5</text>
	<path id="SVGID_x5F_3_x5F_" style="fill:none;" d="M110.65,477.3c0,0,49.63,8.2,79.23,3.64s59.2-21.4,119.76-26.41
		s95.17-1.37,121.13,3.64c25.96,5.01,45.54,10.47,64.21,18.21"/>
	<text>	<textPath  xlink:href="#SVGID_x5F_3_x5F_" startOffset="0.0244%">
<tspan  style="fill:#FFFFFF; font-family:'MaiandraGD-Regular'; font-size:37px;">Spiked Shelly</tspan>	</textPath>
</text>
	<rect x="118.41" y="541.62" style="fill:none;" width="368.8" height="166.71"/>
	<text transform="matrix(1 0 0 1 198.5079 563.879)"><tspan x="0" y="0" style="fill:#FFFFFF; font-family:'MaiandraGD-Regular'; font-size:31px;">When Attacked</tspan><tspan x="-15.94" y="37.2" style="fill:#FFFFFF; font-family:'MaiandraGD-Regular'; font-size:31px;">Deal 1 Damage to</tspan><tspan x="27.44" y="74.4" style="fill:#FFFFFF; font-family:'MaiandraGD-Regular'; font-size:31px;">All enemies</tspan></text>
</g>
<g id="Layer_2">
</g>
</svg>
